<?xml version="1.0" encoding="UTF-8"?>
<svg width="24px" height="25px" viewBox="0 0 24 25" version="1.1" xmlns="http://www.w3.org/2000/svg" xmlns:xlink="http://www.w3.org/1999/xlink">
    <title>icon/docx/fail</title>
    <g id="个人中心" stroke="none" stroke-width="1" fill="none" fill-rule="evenodd">
        <g id="记录导出" transform="translate(-24.000000, -511.000000)" fill-rule="nonzero">
            <g id="编组-4备份-2" transform="translate(24.000000, 281.500000)">
                <g id="编组-9" transform="translate(0.000000, 221.000000)">
                    <g id="icon/docx/fail" transform="translate(0.000000, 9.000000)">
                        <path d="M5.7,23.4285716 L23.1,23.4285716 C23.2656854,23.4285716 23.4,23.300653 23.4,23.1428574 L23.4,6.28571937 L18.3,6.28571937 C17.8038,6.28571937 17.4,5.90114806 17.4,5.42857676 L17.4,0.571435274 L5.7,0.571435274 C5.53431457,0.571435274 5.4,0.699353884 5.4,0.857149487 L5.4,23.1428574 C5.4,23.300653 5.53431457,23.4285716 5.7,23.4285716 Z" id="路径" fill="#FFFFFF"></path>
                        <path d="M23.2758,5.71429094 L18,0.689720955 L18,5.42857676 C18,5.58637235 18.1343146,5.71429094 18.3,5.71429094 L23.2758,5.71429094 L23.2758,5.71429094 Z" id="路径" fill="#FFFFFF"></path>
                        <path d="M23.7363,5.34486248 L18.3879,0.251149661 C18.2195712,0.0898032003 17.9904203,-0.000640924484 17.7516,3.41937531e-06 L5.7,3.41937531e-06 C5.2038,3.41937531e-06 4.80000001,0.384578185 4.80000001,0.857149487 L4.80000001,23.1428574 C4.80000001,23.6154287 5.2038,24.0000034 5.7,24.0000034 L23.1,24.0000034 C23.5962,24.0000034 24,23.6154287 24,23.1428574 L24,5.9508623 C24,5.72229095 23.9061,5.50686243 23.7363,5.34486248 Z M18,0.689720955 L23.2758,5.71429094 L18.3,5.71429094 C18.1343146,5.71429094 18,5.58637235 18,5.42857676 L18,0.689720955 Z M23.1,23.4285716 L5.7,23.4285716 C5.53431457,23.4285716 5.4,23.300653 5.4,23.1428574 L5.4,0.857149487 C5.4,0.699353884 5.53431457,0.571435274 5.7,0.571435274 L17.4,0.571435274 L17.4,5.42857676 C17.4,5.90114806 17.8038,6.28571937 18.3,6.28571937 L23.4,6.28571937 L23.4,23.1428574 C23.4,23.300653 23.2656854,23.4285716 23.1,23.4285716 L23.1,23.4285716 Z" id="形状" fill="#FA5151" opacity="0.64"></path>
                        <path d="M21.3,16.0000023 L12.9,16.0000023 L12.9,16.5714307 L21.3,16.5714307 C21.4656854,16.5714307 21.6,16.4435121 21.6,16.2857165 C21.6,16.1279209 21.4656854,16.0000023 21.3,16.0000023 Z" id="路径" fill="#FA5151"></path>
                        <path d="M21.3,14.2857171 L12.9,14.2857171 L12.9,14.8571455 L21.3,14.8571455 C21.4656854,14.8571455 21.6,14.7292269 21.6,14.5714313 C21.6,14.4136357 21.4656854,14.2857171 21.3,14.2857171 L21.3,14.2857171 Z" id="路径" fill="#FA5151"></path>
                        <path d="M12.9,13.1428603 L21.3,13.1428603 C21.4656854,13.1428603 21.6,13.0149417 21.6,12.857146 C21.6,12.6993504 21.4656854,12.5714318 21.3,12.5714318 L12.9,12.5714318 L12.9,13.1428603 L12.9,13.1428603 Z" id="路径" fill="#FA5151"></path>
                        <path d="M21.3,10.8571466 L12.9,10.8571466 L12.9,11.428575 L21.3,11.428575 C21.4656854,11.428575 21.6,11.3006564 21.6,11.1428608 C21.6,10.9850652 21.4656854,10.8571466 21.3,10.8571466 Z" id="路径" fill="#FA5151"></path>
                        <path d="M1.20000001,19.4285727 L10.8,19.4285727 C11.4627417,19.4285727 12,18.9168983 12,18.2857159 L12,9.14286139 C12,8.51167901 11.4627417,8.00000459 10.8,8.00000459 L1.20000001,8.00000459 C0.537258315,8.00000459 0,8.51167901 0,9.14286139 L0,18.2857159 C0,18.9168983 0.537258315,19.4285727 1.20000001,19.4285727 L1.20000001,19.4285727 Z" id="路径" fill="#FA5151"></path>
                        <path d="M5.3220443,15.1999848 C5.3645247,15.4316961 5.56646976,15.5999836 5.8020429,15.5999836 C6.03761605,15.5999836 6.23956111,15.4316961 6.2820415,15.1999848 L6.60204056,10.7999977 C6.60111413,10.3585555 6.2434851,10.0009264 5.8020429,10 C5.57747932,10.0055378 5.3649564,10.1027015 5.21385267,10.2689156 C5.06274893,10.4351297 4.98621938,10.6559238 5.00204524,10.8799974 L5.3220443,15.1999848 Z M5.8020429,16.3999813 C5.47847405,16.3999813 5.18676587,16.5948945 5.06294143,16.8938331 C4.93911699,17.1927717 5.0075614,17.536865 5.23635913,17.7656627 C5.46515686,17.9944605 5.80925012,18.0629049 6.10818876,17.9390804 C6.40712739,17.815256 6.60204057,17.5235478 6.60204056,17.1999789 C6.61508716,16.9840704 6.53500051,16.772919 6.38205166,16.6199702 C6.2291028,16.4670213 6.01795142,16.3869347 5.8020429,16.3999813 Z" id="形状" fill="#FFFFFF"></path>
                    </g>
                </g>
            </g>
        </g>
    </g>
</svg>