<?xml version="1.0" encoding="UTF-8"?>
<svg width="24px" height="24px" viewBox="0 0 24 24" version="1.1" xmlns="http://www.w3.org/2000/svg" xmlns:xlink="http://www.w3.org/1999/xlink">
    <title>icon/docx/nor</title>
    <g id="个人中心" stroke="none" stroke-width="1" fill="none" fill-rule="evenodd">
        <g id="导出管理" transform="translate(-24.000000, -195.000000)" fill-rule="nonzero">
            <g id="编组-4" transform="translate(0.000000, 108.000000)">
                <g id="icon/docx/nor" transform="translate(24.000000, 87.000000)">
                    <path d="M5.7,23.4285716 L23.1,23.4285716 C23.2656854,23.4285716 23.4,23.300653 23.4,23.1428574 L23.4,6.28571937 L18.3,6.28571937 C17.8038,6.28571937 17.4,5.90114806 17.4,5.42857676 L17.4,0.571435274 L5.7,0.571435274 C5.53431457,0.571435274 5.4,0.699353884 5.4,0.857149487 L5.4,23.1428574 C5.4,23.300653 5.53431457,23.4285716 5.7,23.4285716 Z" id="路径" fill="#FFFFFF"></path>
                    <path d="M21.4,15.1428557 L13,15.1428557 L13,15.7142841 L21.4,15.7142841 C21.5656854,15.7142841 21.7,15.5863655 21.7,15.4285699 C21.7,15.2707743 21.5656854,15.1428557 21.4,15.1428557 Z" id="路径" fill="#103F91"></path>
                    <path d="M21.4,13.4285704 L13,13.4285704 L13,13.9999989 L21.4,13.9999989 C21.5656854,13.9999989 21.7,13.8720803 21.7,13.7142847 C21.7,13.5564891 21.5656854,13.4285704 21.4,13.4285704 L21.4,13.4285704 Z" id="路径" fill="#185ABD"></path>
                    <path d="M13,12.2857136 L21.4,12.2857136 C21.5656854,12.2857136 21.7,12.157795 21.7,11.9999994 C21.7,11.8422038 21.5656854,11.7142852 21.4,11.7142852 L13,11.7142852 L13,12.2857136 L13,12.2857136 Z" id="路径" fill="#2B7CD3"></path>
                    <path d="M21.4,10 L13,10 L13,10.5714284 L21.4,10.5714284 C21.5656854,10.5714284 21.7,10.4435098 21.7,10.2857142 C21.7,10.1279186 21.5656854,10 21.4,10 Z" id="路径" fill="#41A5EE"></path>
                    <path d="M23.7363,5.34486248 L18.3879,0.251149661 C18.2195712,0.0898032003 17.9904203,-0.000640924484 17.7516,3.41937531e-06 L5.7,3.41937531e-06 C5.2038,3.41937531e-06 4.80000001,0.384578185 4.80000001,0.857149487 L4.80000001,23.1428574 C4.80000001,23.6154287 5.2038,24.0000034 5.7,24.0000034 L23.1,24.0000034 C23.5962,24.0000034 24,23.6154287 24,23.1428574 L24,5.9508623 C24,5.72229095 23.9061,5.50686243 23.7363,5.34486248 Z M18,0.689720955 L23.2758,5.71429094 L18.3,5.71429094 C18.1343146,5.71429094 18,5.58637235 18,5.42857676 L18,0.689720955 Z M23.1,23.4285716 L5.7,23.4285716 C5.53431457,23.4285716 5.4,23.300653 5.4,23.1428574 L5.4,0.857149487 C5.4,0.699353884 5.53431457,0.571435274 5.7,0.571435274 L17.4,0.571435274 L17.4,5.42857676 C17.4,5.90114806 17.8038,6.28571937 18.3,6.28571937 L23.4,6.28571937 L23.4,23.1428574 C23.4,23.300653 23.2656854,23.4285716 23.1,23.4285716 L23.1,23.4285716 Z" id="形状" fill="#3385FF"></path>
                    <path d="M23.2758,5.71429094 L18,0.689720955 L18,5.42857676 C18,5.58637235 18.1343146,5.71429094 18.3,5.71429094 L23.2758,5.71429094 L23.2758,5.71429094 Z" id="路径" fill="#C5E4FF"></path>
                    <path d="M1.20000001,19.4285727 L10.8,19.4285727 C11.4627417,19.4285727 12,18.9168983 12,18.2857159 L12,9.14286139 C12,8.51167901 11.4627417,8.00000459 10.8,8.00000459 L1.20000001,8.00000459 C0.537258315,8.00000459 0,8.51167901 0,9.14286139 L0,18.2857159 C0,18.9168983 0.537258315,19.4285727 1.20000001,19.4285727 L1.20000001,19.4285727 Z" id="路径" fill="#1571FA"></path>
                    <path d="M4.08750002,15.6128595 C4.10730002,15.7620024 4.12020002,15.8920023 4.1265,16.0031452 L4.149,16.0031452 C4.17652122,15.7482686 4.21929073,15.4950952 4.27710001,15.2448596 L5.33730001,10.8571466 L6.70830001,10.8571466 L7.8051,15.1791454 C7.86,15.3925739 7.9059,15.6640024 7.94220001,15.994288 L7.96049999,15.994288 C7.97579999,15.7665738 8.0139,15.503431 8.07479999,15.2054311 L8.95229999,10.8571466 L10.2,10.8571466 L8.6646,17.1428591 L7.2066,17.1428591 L6.1599,12.9788603 C6.12960001,12.8588603 6.0951,12.7025747 6.057,12.5097176 C6.0276819,12.3704547 6.00406404,12.2301581 5.9862,12.0891463 L5.9682,12.0891463 C5.95590001,12.191432 5.9322,12.3434319 5.8971,12.5448604 C5.87195664,12.6944179 5.84375127,12.8434939 5.8125,12.9920032 L4.83000001,17.1428591 L3.34920001,17.1428591 L1.8,10.8571466 L3.07050002,10.8571466 L4.0257,15.2537168 C4.04699999,15.3442882 4.06769999,15.4640025 4.08750002,15.6131453 L4.08750002,15.6128595 Z" id="路径" fill="#F9F7F7"></path>
                </g>
            </g>
        </g>
    </g>
</svg>