<?xml version="1.0" encoding="UTF-8"?>
<svg width="175px" height="160px" viewBox="0 0 175 160" version="1.1" xmlns="http://www.w3.org/2000/svg" xmlns:xlink="http://www.w3.org/1999/xlink">
    <title>识别失败插画</title>
    <defs>
        <linearGradient x1="24.7397414%" y1="14.2988903%" x2="70.3046279%" y2="88.2200934%" id="linearGradient-1">
            <stop stop-color="#D7F1FD" offset="0%"></stop>
            <stop stop-color="#EFEBFF" offset="57.4901661%"></stop>
            <stop stop-color="#F4ECFF" offset="100%"></stop>
        </linearGradient>
    </defs>
    <g id="智能识花" stroke="none" stroke-width="1" fill="none" fill-rule="evenodd">
        <g id="识别失败状态" transform="translate(-100.000000, -345.000000)">
            <g id="识别失败插画" transform="translate(100.000000, 345.000000)">
                <path d="M74.9394461,159.911166 C117.826295,162.164745 175,121.272414 175,67.8454376 C175,14.4184612 98.0474758,-8.61972388 53.60354,2.89936866 C9.1596043,14.4184612 -3.79040032,51.2090555 0.907667239,80.9314302 C5.6057348,110.653805 32.0525977,157.657587 74.9394461,159.911166 Z" id="椭圆形" fill="url(#linearGradient-1)"></path>
                <g id="编组" transform="translate(54.448770, 34.000000)">
                    <path d="M18.4738482,45.5179228 C22.3729121,45.5179228 34.0005947,34.2840733 29.3311017,20.4970762 C24.6616087,6.71007912 11.1574579,4.6733105 7.23640651,21.52121 C3.31535513,38.3691095 14.5747843,45.5179228 18.4738482,45.5179228 Z" id="路径-4" stroke="#B9CEFE" fill="#FFFFFF" stroke-linecap="round" stroke-linejoin="round"></path>
                    <path d="M5.23826444,39.7654512 C9.5447855,41.9213115 19.6478242,26.6857245 17.4309689,20.7343341 C15.2141135,14.7829437 18.5393966,3.79620267 6.90090595,11.9710319 C-4.73758465,20.1458611 0.931743373,37.609591 5.23826444,39.7654512 Z" id="路径-5" stroke="#B9CEFE" fill="#FFFFFF" stroke-linecap="round" stroke-linejoin="round"></path>
                    <path d="M18.2830676,38.1304854 C21.9581222,41.2150061 40.4516212,27.7757017 34.3552689,13.0610091 C30.4757721,4.34119128 26.0420614,8.7011002 21.0541368,11.9710319 C11.0782877,18.5108953 14.6080131,35.0459646 18.2830676,38.1304854 Z" id="路径-5备份-2" stroke="#B9CEFE" fill="#FFFFFF" stroke-linecap="round" stroke-linejoin="round" transform="translate(25.061798, 23.257943) scale(-1, 1) translate(-25.061798, -23.257943) "></path>
                    <path d="M22.1130599,7.15193297 C30.800694,-0.761564304 39.488328,-2.10794475 48.1759621,3.11279162 C61.2074132,10.9438962 59.3713668,34.2914089 47.9072724,48.5753436 C36.443178,62.8592783 36.443178,71.4296392 37.8761898,80" id="路径-6" stroke="#000000" stroke-width="2" stroke-linecap="round"></path>
                    <path d="M65.5512302,50.099419 C64.8748453,60.0550123 55.4987664,76.825516 36.59245,77.1523256 C39.7356354,62.4289755 49.3885621,53.41134 65.5512302,50.099419 Z" id="路径-7" fill="#000000"></path>
                    <path d="M32.1971173,59.5064386 C31.7720781,65.7625163 25.8801663,76.3010719 13.9994696,76.5064386 C15.9746419,67.2543107 22.0405244,61.587644 32.1971173,59.5064386 Z" id="路径-7备份" fill="#000000" transform="translate(23.098293, 68.006439) rotate(-112.000000) translate(-23.098293, -68.006439) "></path>
                    <path d="M10.0583951,8.79559007 C14.2898491,6.52594338 17.9442867,5.58025726 21.0217078,5.95853171 C24.0991289,6.33680616 26.7918724,8.03904118 29.0999382,11.0652368 C23.3297736,13.4897475 19.2906584,14.3465772 16.9825926,13.6357259 C14.6745267,12.9248746 12.3664609,11.311496 10.0583951,8.79559007 Z" id="路径-8" fill="#000000"></path>
                </g>
                <circle id="椭圆形" fill="#C3D2FF" cx="41.5" cy="118.5" r="17.5"></circle>
                <circle id="椭圆形备份" fill="#C3D2FF" cx="136" cy="45" r="11"></circle>
                <g id="问号" transform="translate(37.000000, 112.000000)" fill="#FFFFFF" fill-rule="nonzero">
                    <path d="M4.26813473,11 C3.7826869,11 3.38732216,10.6363445 3.38732216,10.1846705 L3.38732216,9.56390819 C3.35979677,9.01263424 3.43987064,8.52389977 3.63254839,8.09770478 C3.82272383,7.67150979 4.20307471,7.28700779 4.77109873,6.94651506 L4.74857795,6.94651506 C5.24403503,6.59212466 5.66192054,6.27711097 6.00223448,6.00147399 C6.34254843,5.72583702 6.59027697,5.48957675 6.74542009,5.2926932 C7.02818095,4.95220046 7.18582638,4.50052643 7.21335177,3.93535481 C7.22836562,3.60644346 7.16580791,3.30995999 7.03318556,3.03895557 C6.90306552,2.77721626 6.71539239,2.5201095 6.47016616,2.26531901 C6.45515231,2.25142135 6.44013846,2.23520741 6.42512461,2.22130975 C5.90464446,1.7511055 5.23903041,1.51484523 4.42828247,1.51484523 C3.65006455,1.51484523 3.01197589,1.79974732 2.51651882,2.37186776 C2.13366563,2.81196041 1.87843017,3.43967151 1.74831013,4.25731733 C1.6807478,4.69046115 1.25035075,4.99389345 0.782419071,4.94525163 C0.296971233,4.89429354 -0.0533519487,4.48894504 0.00670345397,4.03958728 C0.0667588566,3.59022952 0.169353503,3.17561592 0.316989701,2.7934302 C0.549704386,2.19119815 0.86499525,1.68161718 1.26286229,1.26931986 C1.66072934,0.857022531 2.12866101,0.542008844 2.66665733,0.324278796 C3.20465364,0.108865024 3.79269613,0 4.43078478,0 C5.77702672,0 6.86803321,0.368288061 7.70380423,1.1025479 C8.56710064,1.8622868 9,2.80732786 9,3.93535481 C9,4.35460097 8.9399446,4.7460518 8.81983379,5.10507475 C8.69972299,5.46641398 8.53957525,5.79069278 8.34189288,6.07791114 C8.12919666,6.37902716 7.81640811,6.70793851 7.40602952,7.06232891 C6.99565094,7.41671931 6.48518001,7.78963992 5.87711906,8.18340703 C5.59435821,8.36639292 5.40918738,8.54706254 5.3241089,8.72541588 C5.23903041,8.90145294 5.19649117,9.17477364 5.19649117,9.5430617 L5.19649117,10.1846705 C5.19649117,10.6340282 4.80362874,11 4.31567859,11 L4.26813473,11 L4.26813473,11 Z" id="路径"></path>
                    <path d="M4,13 C4,13.5522847 4.44771525,14 5,14 C5.55228475,14 6,13.5522847 6,13 C6,12.4477153 5.55228475,12 5,12 C4.44771525,12 4,12.4477153 4,13 Z" id="路径"></path>
                </g>
                <path d="M134.039368,80.3752317 C135.03826,77.9509915 136.910512,75.1752639 139.656124,72.048049 L132.656124,65.048049 C130.19052,67.5432963 127.919425,70.3302527 125.842839,73.4089183 C129.352999,75.7765515 130.973974,78.3075972 134.039368,80.3752317 Z" id="椭圆形备份-4" fill="#E7F5FF" transform="translate(132.749481, 72.711640) rotate(-34.000000) translate(-132.749481, -72.711640) "></path>
                <path d="M132,41 L140,49 M140,41 L132,49" id="形状结合" stroke="#FFFFFF" stroke-width="2" stroke-linecap="round" fill-rule="nonzero"></path>
            </g>
        </g>
    </g>
</svg>