<?xml version="1.0" encoding="UTF-8"?>
<svg width="160px" height="160px" viewBox="0 0 160 160" version="1.1" xmlns="http://www.w3.org/2000/svg" xmlns:xlink="http://www.w3.org/1999/xlink">
    <title>暂无图片</title>
    <defs>
        <rect id="path-1" x="0" y="0" width="160" height="160" rx="6"></rect>
        <text id="text-3" font-family="PingFangSC-Regular, PingFang SC" font-size="26" font-weight="normal" fill="#FFFFFF">
            <tspan x="32" y="28">暂无图片</tspan>
        </text>
        <filter x="-5.8%" y="-16.2%" width="111.5%" height="132.4%" filterUnits="objectBoundingBox" id="filter-4">
            <feOffset dx="0" dy="0" in="SourceAlpha" result="shadowOffsetOuter1"></feOffset>
            <feGaussianBlur stdDeviation="2" in="shadowOffsetOuter1" result="shadowBlurOuter1"></feGaussianBlur>
            <feColorMatrix values="0 0 0 0 0.344008163   0 0 0 0 0.571601712   0 0 0 0 0.725562054  0 0 0 1 0" type="matrix" in="shadowBlurOuter1"></feColorMatrix>
        </filter>
    </defs>
    <g id="智能识花" stroke="none" stroke-width="1" fill="none" fill-rule="evenodd">
        <g id="无图片状态" transform="translate(-40.000000, -357.000000)">
            <g id="编组备份-3" transform="translate(28.000000, 345.000000)">
                <g id="暂无图片" transform="translate(12.000000, 12.000000)">
                    <mask id="mask-2" fill="white">
                        <use xlink:href="#path-1"></use>
                    </mask>
                    <use id="蒙版" fill-opacity="0.421946706" fill="#1F8FD1" xlink:href="#path-1"></use>
                    <g id="编组-5" mask="url(#mask-2)">
                        <g transform="translate(12.000000, 62.000000)">
                            <g id="暂无图片" fill-opacity="1">
                                <use fill="#FFFFFF" filter="url(#filter-4)" xlink:href="#text-3"></use>
                                <use fill="#FFFFFF" xlink:href="#text-3"></use>
                            </g>
                            <g id="没有订单" stroke-width="1" fill-rule="evenodd" transform="translate(0.000000, 7.000000)">
                                <rect id="矩形" fill="#000000" fill-rule="nonzero" opacity="0" x="0" y="0" width="24" height="24"></rect>
                                <path d="M12.0269531,15.0465937 C15.9753516,15.0465937 19.6987031,16.7640938 22.2423047,19.7588203 C22.6442813,20.2310859 22.5906562,20.9299922 22.1202422,21.3502734 C21.9279609,21.5221406 21.6745547,21.6168516 21.406875,21.6168516 C21.0718125,21.6168516 20.7519609,21.4743516 20.5292813,21.2258906 C18.3796875,18.7214531 15.2700234,17.2838437 11.9997891,17.2838437 C8.70611719,17.2838437 5.5963125,18.7217578 3.4678125,21.2287734 C3.25300781,21.4810313 2.94534375,21.6258516 2.62373437,21.6258516 C2.36003906,21.6258516 2.10529688,21.528 1.90640625,21.35025 C1.66914844,21.1486875 1.52880469,20.8754766 1.50841406,20.5781719 C1.4885625,20.2879219 1.58571094,20.0074687 1.78195313,19.7884922 C4.3695,16.774125 8.10292969,15.0465937 12.0269531,15.0465937 L12.0269531,15.0465937 Z M18.4306172,9.26775 C17.4048516,9.26775 16.5384141,8.38075781 16.5384141,7.33092188 L16.5384141,4.50246094 C16.5384141,3.45250781 17.404875,2.56544531 18.4306172,2.56544531 C19.4563125,2.56544531 20.3228203,3.45250781 20.3228203,4.50246094 L20.3228203,7.33096875 C20.3228203,8.39892188 19.4740078,9.26775 18.4306172,9.26775 L18.4306172,9.26775 Z M5.58907031,9.26775 C4.56342188,9.26775 3.6969375,8.38075781 3.6969375,7.33092188 L3.6969375,4.50246094 C3.6969375,3.45250781 4.56342188,2.56544531 5.58907031,2.56544531 C6.61495313,2.56544531 7.48155469,3.45250781 7.48155469,4.50246094 L7.48155469,7.33096875 C7.48155469,8.38075781 6.61495313,9.26775 5.58907031,9.26775 L5.58907031,9.26775 Z" id="形状" fill="#FFFFFF" fill-rule="nonzero"></path>
                            </g>
                        </g>
                    </g>
                </g>
            </g>
        </g>
    </g>
</svg>