<?xml version="1.0" encoding="UTF-8"?>
<svg width="175px" height="160px" viewBox="0 0 175 160" version="1.1" xmlns="http://www.w3.org/2000/svg" xmlns:xlink="http://www.w3.org/1999/xlink">
    <title>识别中插画</title>
    <defs>
        <linearGradient x1="24.7397414%" y1="14.2988903%" x2="70.3046279%" y2="88.2200934%" id="linearGradient-1">
            <stop stop-color="#D7F1FD" offset="0%"></stop>
            <stop stop-color="#EFEBFF" offset="57.4901661%"></stop>
            <stop stop-color="#F4ECFF" offset="100%"></stop>
        </linearGradient>
        <linearGradient x1="50%" y1="0%" x2="50%" y2="100%" id="linearGradient-2">
            <stop stop-color="#FFFFFF" stop-opacity="0" offset="0%"></stop>
            <stop stop-color="#FFFFFF" offset="100%"></stop>
        </linearGradient>
    </defs>
    <g id="智能识花" stroke="none" stroke-width="1" fill="none" fill-rule="evenodd">
        <g id="识别中" transform="translate(-100.000000, -345.000000)">
            <g id="识别中插画" transform="translate(100.000000, 345.000000)">
                <path d="M74.9394461,159.911166 C117.826295,162.164745 175,121.272414 175,67.8454376 C175,14.4184612 98.0474758,-8.61972388 53.60354,2.89936866 C9.1596043,14.4184612 -3.79040032,51.2090555 0.907667239,80.9314302 C5.6057348,110.653805 32.0525977,157.657587 74.9394461,159.911166 Z" id="椭圆形" fill="url(#linearGradient-1)"></path>
                <path d="M70.4027775,28 C73.3926886,29.6614432 75.5118372,33.8139355 75.5118372,38.6736644 C75.5118372,39.4640418 75.4557832,40.2555894 75.3490458,41.0356637 C76.0528245,40.6915596 76.7840966,40.3933907 77.5315796,40.1491756 C82.1275852,38.6476246 86.7095097,39.3906534 89.2050841,41.7358878 L87.3501607,45.41209 L91,47.2887596 C90.3524791,50.6614406 87.0797517,53.9711836 82.4832475,55.472943 C81.7356379,55.7171938 80.9695978,55.9081961 80.1987478,56.0471787 C80.741927,56.6139265 81.2498759,57.2210533 81.7118113,57.8603495 C84.5522489,61.7915484 85.2653574,66.402874 83.818323,69.5141215 L79.7680327,68.876258 L79.1208717,72.9465402 C75.7307707,73.3695285 71.5889653,71.2625699 68.7481194,67.331 C68.2863486,66.6919075 67.8691941,66.0187755 67.4996971,65.3249854 C67.1305894,66.0187755 66.7134349,66.6919075 66.2516641,67.331 C63.4111346,71.262132 59.2699354,73.3690592 55.8800446,72.9466815 L55.2317509,68.876258 L51.1819441,69.5151611 C49.7342674,66.4039012 50.4472183,61.7919862 53.2879722,57.8603495 C53.7499077,57.2210533 54.2578566,56.6139265 54.8000905,56.0460194 C54.0297715,55.9080928 53.2639435,55.7171278 52.516536,55.472943 C47.9205438,53.9713508 44.6480335,50.6621778 44,47.2898865 L47.6496228,45.41209 L45.7938656,41.7366716 C48.2892532,39.3908189 52.8716864,38.6474573 57.468204,40.1491756 C58.215687,40.3933907 58.9469591,40.6915596 59.6517245,41.0346426 C59.5439525,40.2549131 59.4879464,39.4637041 59.4879464,38.6736644 C59.4879464,33.8144767 61.606623,29.6623682 64.5960071,28.0005552 L67.4998918,30.9104366 L70.4027775,28 Z M67.5,48 C66.1192881,48 65,49.1192881 65,50.5 C65,51.8807119 66.1192881,53 67.5,53 C68.8807119,53 70,51.8807119 70,50.5 C70,49.1192881 68.8807119,48 67.5,48 Z" id="形状结合" fill="#C3D2FF"></path>
                <g id="编组-3" transform="translate(95.000000, 95.000000) rotate(-45.000000) translate(-95.000000, -95.000000) translate(72.000000, 59.000000)">
                    <rect id="矩形" fill="#0B0B0B" x="21.6752456" y="44.6485853" width="1.95744681" height="6.71890766"></rect>
                    <ellipse id="椭圆形" stroke="#0B0B0B" stroke-width="1.92" fill="url(#linearGradient-2)" stroke-linecap="round" stroke-linejoin="round" cx="23" cy="22.5563328" rx="23" ry="22.5563328"></ellipse>
                    <rect id="矩形" fill="#0B0B0B" x="19.5744681" y="51.843277" width="6.85106383" height="20.156723" rx="1.92"></rect>
                </g>
                <path d="M34.3596468,87.5881236 C24.7866273,100.998324 21.4948103,113.762873 26.8443159,122.323872 C31.8124352,130.274525 43.3063949,133.115709 57.9360003,131.297254 M69.9481613,128.65031 C82.257298,125.335874 95.8811921,119.379364 109.311413,110.987231 C126.679896,100.134198 140.529137,87.204329 149.027573,74.9342707 C152.359377,70.1238057 154.868749,65.4147551 156.445321,60.9720263 M158.028711,51.0522233 C158.071251,47.4476851 157.256651,44.1766613 155.500086,41.3655697 C148.725976,30.5247281 129.662728,29.276644 106.959826,36.427037" id="形状" stroke="#000000" stroke-dasharray="1"></path>
                <circle id="椭圆形" fill="#0B0B0B" cx="63.8233924" cy="128.888964" r="4.58898228"></circle>
                <circle id="椭圆形备份-3" fill="#0B0B0B" cx="157.897529" cy="55.9241458" r="2.29449114"></circle>
                <circle id="椭圆形" fill="#000000" cx="39" cy="82" r="3"></circle>
                <path d="M148.039368,66.3752317 C149.03826,63.9509915 150.910512,61.1752639 153.656124,58.048049 L146.656124,51.048049 C144.19052,53.5432963 141.919425,56.3302527 139.842839,59.4089183 C143.352999,61.7765515 144.973974,64.3075972 148.039368,66.3752317 Z" id="椭圆形备份-4" fill="#E7F5FF" transform="translate(146.749481, 58.711640) rotate(-34.000000) translate(-146.749481, -58.711640) "></path>
            </g>
        </g>
    </g>
</svg>