<?xml version="1.0" encoding="UTF-8"?>
<svg width="22px" height="22px" viewBox="0 0 22 22" version="1.1" xmlns="http://www.w3.org/2000/svg" xmlns:xlink="http://www.w3.org/1999/xlink">
    <title>icon/当前定位/选中</title>
    <g id="实习地图-图层切换" stroke="none" stroke-width="1" fill="none" fill-rule="evenodd">
        <g id="icon" transform="translate(-75.000000, -238.000000)" fill-rule="nonzero">
            <g id="编组" transform="translate(74.000000, 237.000000)">
                <rect id="矩形" fill="#000000" opacity="0" x="0" y="0" width="24" height="24"></rect>
                <path d="M22.4435156,10.9544531 C21.950625,5.99109375 18.0035156,2.04421875 13.0401563,1.5515625 L13.0401563,1.49953125 L10.9392188,1.49953125 L10.9392188,1.5515625 C5.97609375,2.04445312 2.02945312,5.99132812 1.5365625,10.9544531 L1.48453125,10.9544531 L1.48453125,13.055625 L1.5365625,13.055625 C2.02546875,17.9803125 5.91539062,21.9046875 10.8246094,22.4463281 L10.8227344,22.5103125 L13.0401563,22.5103125 L13.0401563,22.4582813 C18.0035156,21.965625 21.950625,18.0185156 22.4435156,13.0553906 L22.4955469,13.0553906 L22.4955469,10.9542187 L22.4435156,10.9542187 L22.4435156,10.9544531 Z M20.323125,13.055625 C19.8246094,16.7599219 16.7444531,19.8405469 13.0401562,20.3388281 L13.0401562,18.3082031 L10.9392187,18.3082031 L10.8832031,20.3308594 C7.20375,19.8091406 4.15242188,16.7409375 3.65648438,13.055625 L5.686875,13.055625 L5.686875,10.9544531 L3.65648438,10.9544531 C4.155,7.25039063 7.23492188,4.16976563 10.9392188,3.67125 L10.9392188,5.70164062 L13.0401563,5.70164062 L13.0401563,3.67101563 C16.7444531,4.16929688 19.8246094,7.24992188 20.323125,10.9542188 L18.2932031,10.9542188 L18.2932031,13.0553906 L20.323125,13.0553906 L20.323125,13.055625 Z M11.9901563,8.49234375 C10.0502344,8.49234375 8.47734375,10.065 8.47734375,12.0051563 C8.47734375,13.9450781 10.05,15.5179688 11.9901563,15.5179688 C13.9303125,15.5179688 15.5029688,13.9453125 15.5029688,12.0051563 C15.5029688,10.065 13.9303125,8.49234375 11.9901563,8.49234375 Z" id="形状" fill="#243ED3"></path>
            </g>
        </g>
    </g>
</svg>