<?xml version="1.0" encoding="utf-8"?>
<!-- Generator: Adobe Illustrator 23.0.2, SVG Export Plug-In . SVG Version: 6.00 Build 0)  -->
<svg version="1.1" id="图层_1" xmlns="http://www.w3.org/2000/svg" xmlns:xlink="http://www.w3.org/1999/xlink" x="0px" y="0px"
	 viewBox="0 0 320 320" style="enable-background:new 0 0 320 320;" xml:space="preserve">
<style type="text/css">
	.st0{fill:#1296DB;}
	.st1{opacity:0.5;fill:#1296DB;enable-background:new    ;}
</style>
<path class="st0" d="M210.7,68.8c0,23-38,76.7-48,90.7c-1.3,1.7-3.7,1.7-5,0c-10.3-14-48.3-67.7-48.3-90.7c0-26.3,22.7-48,50.7-48
	S210.7,42.5,210.7,68.8z"/>
<path class="st1" d="M100,161.8c0,8.3,26.9,15,60,15s60-6.7,60-15c0,0,0,0,0,0c0-8.3-26.9-15-60-15S100,153.5,100,161.8z"/>
</svg>
